<?xml version="1.0" encoding="UTF-8" standalone="no"?>
<!-- Created with Inkscape (http://www.inkscape.org/) -->

<svg
   width="1600"
   height="700"
   aria-hidden="true"
   viewBox="0 0 1600 700"
   version="1.1"
   data-view-component="true"
   id="svg5"
   inkscape:export-filename="Rubik's cube.png"
   inkscape:export-xdpi="96"
   inkscape:export-ydpi="96"
   inkscape:version="1.2.1 (9c6d41e410, 2022-07-14)"
   sodipodi:docname="Tilde.svg"
   xml:space="preserve"
   xmlns:inkscape="http://www.inkscape.org/namespaces/inkscape"
   xmlns:sodipodi="http://sodipodi.sourceforge.net/DTD/sodipodi-0.dtd"
   xmlns="http://www.w3.org/2000/svg"
   xmlns:svg="http://www.w3.org/2000/svg"><sodipodi:namedview
     id="namedview7"
     pagecolor="#505050"
     bordercolor="#00ffff"
     borderopacity="1"
     inkscape:pageshadow="0"
     inkscape:pageopacity="0"
     inkscape:pagecheckerboard="1"
     inkscape:document-units="mm"
     showgrid="false"
     inkscape:zoom="0.51"
     inkscape:cx="800"
     inkscape:cy="349.01961"
     inkscape:window-width="1366"
     inkscape:window-height="745"
     inkscape:window-x="1201"
     inkscape:window-y="2152"
     inkscape:window-maximized="1"
     inkscape:current-layer="svg5"
     inkscape:showpageshadow="true"
     inkscape:deskcolor="#002121"
     showguides="true" /><defs
     id="defs2" /><path
     id="rect339"
     style="fill:#b3b3b3;stroke-width:0.770365;stroke-linecap:round"
     d="M 160.28602,50 C 105.67127,50 61.703354,86.922898 61.703354,132.78666 V 567.21334 C 61.703354,613.07711 105.67127,650 160.28602,650 H 1235.7924 c 54.6146,0 98.5827,-36.92288 98.5827,-82.78666 V 132.78666 C 1334.3751,86.922898 1290.407,50 1235.7924,50 Z m 906.12508,164.99532 h 121.2858 c 30.751,0 55.5073,20.78948 55.5073,46.61316 v 176.78305 c 0,25.82368 -24.7563,46.61314 -55.5073,46.61314 h -121.2858 c -30.7509,0 -55.5071,-20.78945 -55.5071,-46.61314 V 261.60848 c 0,-25.82368 24.7562,-46.61316 55.5071,-46.61316 z" /></svg>
