<?xml version="1.0" encoding="UTF-8" standalone="no"?>
<!-- Created with Inkscape (http://www.inkscape.org/) -->

<svg
   width="270px"
   height="270px"
   aria-hidden="true"
   viewBox="0 0 16 16"
   version="1.1"
   data-view-component="true"
   id="svg5"
   inkscape:export-filename="F:\work\Reusable graphics\Github.png"
   inkscape:export-xdpi="96"
   inkscape:export-ydpi="96"
   inkscape:version="1.2.1 (9c6d41e410, 2022-07-14)"
   sodipodi:docname="Github.svg"
   xmlns:inkscape="http://www.inkscape.org/namespaces/inkscape"
   xmlns:sodipodi="http://sodipodi.sourceforge.net/DTD/sodipodi-0.dtd"
   xmlns="http://www.w3.org/2000/svg"
   xmlns:svg="http://www.w3.org/2000/svg">
  <sodipodi:namedview
     id="namedview7"
     pagecolor="#505050"
     bordercolor="#ffffff"
     borderopacity="1"
     inkscape:pageshadow="0"
     inkscape:pageopacity="0"
     inkscape:pagecheckerboard="1"
     inkscape:document-units="mm"
     showgrid="false"
     inkscape:zoom="0.76791526"
     inkscape:cx="372.43693"
     inkscape:cy="179.70733"
     inkscape:window-width="1366"
     inkscape:window-height="745"
     inkscape:window-x="-8"
     inkscape:window-y="-8"
     inkscape:window-maximized="1"
     inkscape:current-layer="svg5"
     inkscape:showpageshadow="0"
     inkscape:deskcolor="#505050" />
  <defs
     id="defs2" />
  <g
     inkscape:label="Layer 1"
     inkscape:groupmode="layer"
     id="layer1" />
  <path
     fill-rule="evenodd"
     d="m 8,0.54018306 c -4.1139999,0 -7.44615363,3.33215374 -7.44615363,7.44615364 0,3.2949233 2.13146143,6.0779233 5.09130753,7.0645383 0.3723077,0.06515 0.5119231,-0.158231 0.5119231,-0.353692 0,-0.176846 -0.00931,-0.763231 -0.00931,-1.386846 C 4.2769232,13.654721 3.7929232,12.85426 3.6440001,12.435413 3.5602309,12.221337 3.1972309,11.56049 2.8807694,11.383644 c -0.2606154,-0.139615 -0.6329231,-0.484 -0.00931,-0.493307 0.5863846,-0.0093 1.0052307,0.539846 1.1448461,0.76323 0.6701538,1.126231 1.7405384,0.80977 2.1686923,0.614308 0.065154,-0.484 0.2606153,-0.809769 0.4746922,-0.995923 -1.6567691,-0.186154 -3.3879999,-0.828385 -3.3879999,-3.6765384 0,-0.8097692 0.2885385,-1.479923 0.7632308,-2.0011538 C 3.9604599,5.408106 3.699844,4.6448753 4.1093819,3.6210291 c 0,0 0.6236154,-0.1954615 2.0476923,0.7632308 0.5956923,-0.1675385 1.2286153,-0.2513077 1.8615384,-0.2513077 0.632923,0 1.2658461,0.083769 1.8615384,0.2513077 1.424077,-0.968 2.047692,-0.7632308 2.047692,-0.7632308 0.409538,1.0238462 0.148923,1.7870769 0.07446,1.9732307 0.474692,0.5212308 0.76323,1.1820769 0.76323,2.0011538 0,2.8574614 -1.740538,3.4903844 -3.3973071,3.6765384 0.2699231,0.232692 0.5026154,0.679462 0.5026154,1.377538 0,0.995923 -0.00931,1.796385 -0.00931,2.047693 0,0.195461 0.1396157,0.428153 0.5119227,0.353692 a 7.4582536,7.4582536 0 0 0 5.0727,-7.0645383 C 15.446154,3.8723368 12.114,0.54018306 8,0.54018306 Z"
     style="stroke-width:0.930769;fill:#b3b3b3;fill-opacity:1"
     inkscape:export-filename="Github.png"
     inkscape:export-xdpi="96"
     inkscape:export-ydpi="96"
     id="path5" />
</svg>
