<?xml version="1.0" encoding="UTF-8" standalone="no"?>
<!-- Created with Inkscape (http://www.inkscape.org/) -->

<svg
   width="34"
   height="34"
   aria-hidden="true"
   viewBox="0 0 34 34"
   version="1.1"
   data-view-component="true"
   id="svg5"
   inkscape:export-filename="F:\work\Reusable graphics\Github.png"
   inkscape:export-xdpi="96"
   inkscape:export-ydpi="96"
   inkscape:version="1.2.1 (9c6d41e410, 2022-07-14)"
   sodipodi:docname="LinkedIn.svg"
   xmlns:inkscape="http://www.inkscape.org/namespaces/inkscape"
   xmlns:sodipodi="http://sodipodi.sourceforge.net/DTD/sodipodi-0.dtd"
   xmlns="http://www.w3.org/2000/svg"
   xmlns:svg="http://www.w3.org/2000/svg"><sodipodi:namedview
   id="namedview7"
   pagecolor="#505050"
   bordercolor="#ffffff"
   borderopacity="1"
   inkscape:pageshadow="0"
   inkscape:pageopacity="0"
   inkscape:pagecheckerboard="1"
   inkscape:document-units="mm"
   showgrid="false"
   inkscape:zoom="12.286644"
   inkscape:cx="27.672325"
   inkscape:cy="28.730384"
   inkscape:window-width="1366"
   inkscape:window-height="745"
   inkscape:window-x="-8"
   inkscape:window-y="-8"
   inkscape:window-maximized="1"
   inkscape:current-layer="svg5"
   inkscape:showpageshadow="0"
   inkscape:deskcolor="#505050" />
<defs
   id="defs2" />
<g
   inkscape:label="Layer 1"
   inkscape:groupmode="layer"
   id="layer1" />
<path
   d="M 34,2.5000001 V 31.5 A 2.5,2.5 0 0 1 31.5,34 H 2.4999999 A 2.5,2.5 0 0 1 4.9999999e-8,31.5 V 2.5000001 A 2.5,2.5 0 0 1 2.4999999,3.0000002e-8 H 31.5 A 2.5,2.5 0 0 1 34,2.5000001 Z M 10,13 H 4.9999999 V 29 H 10 Z m 0.45,-5.4999999 a 2.88,2.88 0 0 0 -2.8600001,-2.9 h -0.09 a 2.9,2.9 0 0 0 0,5.7999999 v 0 A 2.88,2.88 0 0 0 10.45,7.5900001 Z M 29,19.28 C 29,14.47 25.94,12.6 22.9,12.6 a 5.7,5.7 0 0 0 -5.06,2.58 H 17.7 V 13 H 13 v 16 h 5 v -8.51 a 3.32,3.32 0 0 1 3,-3.58 h 0.19 c 1.59,0 2.77,1 2.77,3.52 V 29 h 5 z"
   fill="currentColor"
   id="path6"
   style="fill:#b3b3b3;fill-opacity:1"
   inkscape:export-filename="LinkedIn.png"
   inkscape:export-xdpi="96"
   inkscape:export-ydpi="96" />

/&gt;
</svg>
