<?xml version="1.0" encoding="UTF-8" standalone="no"?>
<!-- Created with Inkscape (http://www.inkscape.org/) -->

<svg
   width="300"
   height="300"
   aria-hidden="true"
   viewBox="0 0 50 50"
   version="1.1"
   data-view-component="true"
   id="svg5"
   inkscape:export-filename="F:\work\Reusable graphics\Instagram.png"
   inkscape:export-xdpi="96"
   inkscape:export-ydpi="96"
   inkscape:version="1.2.1 (9c6d41e410, 2022-07-14)"
   sodipodi:docname="Mail.svg"
   xmlns:inkscape="http://www.inkscape.org/namespaces/inkscape"
   xmlns:sodipodi="http://sodipodi.sourceforge.net/DTD/sodipodi-0.dtd"
   xmlns="http://www.w3.org/2000/svg"
   xmlns:svg="http://www.w3.org/2000/svg">
  <sodipodi:namedview
     id="namedview7"
     pagecolor="#505050"
     bordercolor="#ffffff"
     borderopacity="1"
     inkscape:pageshadow="0"
     inkscape:pageopacity="0"
     inkscape:pagecheckerboard="1"
     inkscape:document-units="mm"
     showgrid="false"
     inkscape:zoom="1.3155007"
     inkscape:cx="720.63816"
     inkscape:cy="131.50886"
     inkscape:window-width="1366"
     inkscape:window-height="745"
     inkscape:window-x="-8"
     inkscape:window-y="-8"
     inkscape:window-maximized="1"
     inkscape:current-layer="svg5"
     inkscape:showpageshadow="0"
     inkscape:deskcolor="#505050" />
  <defs
     id="defs2" />
  <g
     inkscape:label="Layer 1"
     inkscape:groupmode="layer"
     id="layer1" />
  <g
     id="g1202"
     transform="translate(-2.1703788,-2.3874162)"
     inkscape:export-filename="F:\work\Reusable graphics\Gmail.png"
     inkscape:export-xdpi="96"
     inkscape:export-ydpi="96">
    <path
       style="fill:#f09e98;stroke-width:0.166667"
       d="m 53.910845,46.211207 c 0.165915,-0.183333 0.339163,-0.333333 0.384997,-0.333333 0.04583,0 -0.05242,0.15 -0.21833,0.333333 -0.165915,0.183333 -0.339164,0.333333 -0.384997,0.333333 -0.04583,0 0.05241,-0.15 0.21833,-0.333333 z M -3.4926637,8.2806516 c 0.008,-0.1941572 0.04749,-0.23365 0.1006945,-0.1006945 0.048145,0.1203125 0.042224,0.2640625 -0.013158,0.3194445 -0.055382,0.055382 -0.094774,-0.043056 -0.087537,-0.21875 z m 1.6535088,-3.1527779 c 0.2152909,-0.2291666 0.428938,-0.4166666 0.4747714,-0.4166666 0.045833,0 -0.092814,0.1875 -0.3081047,0.4166666 -0.2152908,0.2291667 -0.428938,0.4166667 -0.4747713,0.4166667 -0.045833,0 0.092814,-0.1875 0.3081046,-0.4166667 z M 53.314897,5.0862071 52.910845,4.6278737 53.369178,5.0319261 c 0.252084,0.2222288 0.458334,0.4284788 0.458334,0.4583333 0,0.1307123 -0.134967,0.024329 -0.512615,-0.4040523 z M 1.2962618,3.4306881 c 0.1203125,-0.048145 0.2640625,-0.042224 0.3194445,0.013158 0.055382,0.055382 -0.043056,0.094774 -0.21875,0.087537 -0.1941572,-0.008 -0.23365,-0.04749 -0.1006945,-0.100695 z m 46.6666662,0 c 0.120312,-0.048145 0.264064,-0.042224 0.319445,0.013158 0.05538,0.055382 -0.04306,0.094774 -0.21875,0.087537 -0.194158,-0.008 -0.23365,-0.04749 -0.100695,-0.100695 z"
       id="path1216" />
    <path
       style="fill:#4184f2;stroke-width:0.166667"
       d="M -0.94700153,47.106545 C -1.7198817,46.83257 -2.6888835,45.969534 -3.130558,45.161774 c -0.2709715,-0.49557 -0.2951719,-1.602559 -0.3370825,-15.419132 -0.038368,-12.648697 -0.01045,-14.864913 0.1858036,-14.75 0.1270259,0.07438 3.12859453,2.309475 6.6701524,4.966885 l 6.4391963,4.831653 v 11.293347 11.293347 l -5.0416667,-0.01317 c -3.9852033,-0.0104 -5.18650097,-0.0645 -5.73284663,-0.25817 z"
       id="path1214" />
    <path
       style="fill:#f9bb03;stroke-width:0.166667"
       d="M 41.827512,16.064054 V 7.4136807 L 43.9662,5.8154481 c 2.776835,-2.0751159 3.367368,-2.3416625 5.194645,-2.3446827 1.186602,-0.00196 1.571435,0.069612 2.369678,0.4407262 1.332925,0.619695 2.486014,1.7520571 3.065769,3.0106635 0.468693,1.0174981 0.479816,1.108801 0.536225,4.4014589 l 0.0576,3.362406 -6.681303,5.014202 -6.681303,5.014203 z"
       id="path1212" />
    <path
       style="fill:#5c6fc6;stroke-width:0.166667"
       d="m 9.139586,24.252874 c -0.2073119,-0.264344 -0.2014169,-0.270239 0.062926,-0.06293 0.1604167,0.125808 0.2916667,0.257058 0.2916667,0.291667 0,0.137173 -0.1368644,0.04888 -0.3545925,-0.22874 z m -0.6666667,-0.5 c -0.2073118,-0.264344 -0.2014168,-0.270239 0.062926,-0.06293 0.1604167,0.125808 0.2916667,0.257058 0.2916667,0.291667 0,0.137173 -0.1368643,0.04888 -0.3545925,-0.22874 z m -0.6666667,-0.5 c -0.2073118,-0.264344 -0.2014168,-0.270239 0.062926,-0.06293 0.1604166,0.125808 0.2916666,0.257058 0.2916666,0.291667 0,0.137173 -0.1368643,0.04888 -0.3545925,-0.22874 z m -0.6666666,-0.5 c -0.2073119,-0.264344 -0.2014169,-0.270239 0.062926,-0.06293 0.1604167,0.125808 0.2916667,0.257058 0.2916667,0.291667 0,0.137173 -0.1368644,0.04888 -0.3545925,-0.22874 z m -0.6666667,-0.5 c -0.2073118,-0.264344 -0.2014168,-0.270239 0.062926,-0.06293 0.1604167,0.125808 0.2916667,0.257058 0.2916667,0.291667 0,0.137173 -0.1368643,0.04888 -0.3545925,-0.22874 z m -0.6666667,-0.5 c -0.2073118,-0.264344 -0.2014168,-0.270239 0.062926,-0.06293 0.1604166,0.125808 0.2916666,0.257058 0.2916666,0.291667 0,0.137173 -0.1368643,0.04888 -0.3545925,-0.22874 z m -0.6666666,-0.5 c -0.2073119,-0.264344 -0.2014169,-0.270239 0.062926,-0.06293 0.1604167,0.125808 0.2916667,0.257058 0.2916667,0.291667 0,0.137173 -0.1368644,0.04888 -0.3545925,-0.22874 z m -0.6666667,-0.5 c -0.2073118,-0.264344 -0.2014168,-0.270239 0.062926,-0.06293 0.1604167,0.125808 0.2916667,0.257058 0.2916667,0.291667 0,0.137173 -0.1368643,0.04888 -0.3545925,-0.22874 z m -0.6666667,-0.5 c -0.2073118,-0.264344 -0.2014168,-0.270239 0.062926,-0.06293 0.1604166,0.125808 0.2916666,0.257058 0.2916666,0.291667 0,0.137173 -0.1368643,0.04888 -0.3545925,-0.22874 z m -0.6666666,-0.5 c -0.2073119,-0.264344 -0.2014169,-0.270239 0.062926,-0.06293 0.1604167,0.125808 0.2916667,0.257058 0.2916667,0.291667 0,0.137173 -0.1368644,0.04888 -0.3545925,-0.22874 z m -0.6666667,-0.5 c -0.2073118,-0.264344 -0.2014168,-0.270239 0.062926,-0.06293 0.1604167,0.125808 0.2916667,0.257058 0.2916667,0.291667 0,0.137173 -0.1368643,0.04888 -0.3545925,-0.22874 z m -0.6666667,-0.5 c -0.2073118,-0.264344 -0.2014168,-0.270239 0.062926,-0.06293 0.1604166,0.125808 0.2916666,0.257058 0.2916666,0.291667 0,0.137173 -0.1368643,0.04888 -0.3545925,-0.22874 z m -0.6666666,-0.5 c -0.20731187,-0.264344 -0.20141687,-0.270239 0.062926,-0.06293 0.1604167,0.125808 0.2916667,0.257058 0.2916667,0.291667 0,0.137173 -0.1368644,0.04888 -0.3545925,-0.22874 z m -0.6666667,-0.5 c -0.20731183,-0.264344 -0.20141683,-0.270239 0.0629258,-0.06293 0.16041667,0.125808 0.29166667,0.257058 0.29166667,0.291667 0,0.137173 -0.13686433,0.04888 -0.3545925,-0.22874 z m -0.66666667,-0.5 c -0.20731183,-0.264344 -0.20141683,-0.270239 0.0629258,-0.06293 0.16041666,0.125808 0.29166666,0.257058 0.29166666,0.291667 0,0.137173 -0.13686433,0.04888 -0.3545925,-0.22874 z m -0.66666666,-0.5 c -0.20731187,-0.264344 -0.20141687,-0.270239 0.0629258,-0.06293 0.16041667,0.125808 0.29166667,0.257058 0.29166667,0.291667 0,0.137173 -0.13686434,0.04888 -0.3545925,-0.22874 z m -0.66666667,-0.5 c -0.2073118,-0.264344 -0.2014168,-0.270239 0.062926,-0.06293 0.1604167,0.125808 0.2916667,0.257058 0.2916667,0.291667 0,0.137173 -0.1368643,0.04888 -0.3545925,-0.22874 z m -0.6666667,-0.5 c -0.2073118,-0.264344 -0.2014168,-0.270239 0.062926,-0.06293 0.1604166,0.125808 0.2916666,0.257058 0.2916666,0.291667 0,0.137173 -0.1368643,0.04888 -0.3545925,-0.22874 z m -0.6666666,-0.5 c -0.2073119,-0.264344 -0.2014169,-0.270239 0.062926,-0.06293 0.2776247,0.217728 0.3659132,0.354593 0.2287408,0.354593 -0.034609,0 -0.1658593,-0.13125 -0.2916666,-0.291666 z"
       id="path1210" />
    <path
       style="fill:#e94234;stroke-width:0.166667"
       d="M 17.702512,30.595207 9.8275118,24.66976 v -8.56261 c 0,-4.709435 0.037878,-8.5626096 0.084174,-8.5626096 0.046295,0 3.6462962,2.6718226 7.9999992,5.9373836 l 7.915827,5.937381 7.915826,-5.937381 c 4.353704,-3.265561 7.953704,-5.9373836 8,-5.9373836 0.0463,0 0.08417,3.8531786 0.08417,8.5626166 v 8.562618 l -7.915827,5.937382 c -4.353703,3.265562 -8.009953,5.932008 -8.125,5.92544 -0.115045,-0.0066 -3.752923,-2.678395 -8.084173,-5.93739 z M 3.1295951,3.4306881 c 0.1203125,-0.048145 0.2640625,-0.042224 0.3194445,0.013158 0.055382,0.055382 -0.043056,0.094774 -0.21875,0.087537 -0.1941571,-0.008 -0.23365,-0.04749 -0.1006945,-0.100695 z"
       id="path1208" />
    <path
       style="fill:#33a751;stroke-width:0.166667"
       d="M 41.827512,36.054924 V 24.714425 l 6.666666,-5.003218 6.666667,-5.003218 v 14.51114 c 0,10.032878 -0.05678,14.736643 -0.183997,15.241855 -0.225043,0.893726 -1.116178,1.969028 -2.042245,2.464305 -0.663881,0.355056 -0.890658,0.371191 -5.898758,0.419693 l -5.208333,0.05044 z"
       id="path1206" />
    <path
       style="fill:#c4211e;stroke-width:0.166667"
       d="m 3.0190301,19.582665 -6.5584816,-4.938091 0.073485,-3.25835 c 0.080179,-3.5551398 0.1845573,-4.0554978 1.13383,-5.4352181 1.080733,-1.5707917 2.885493,-2.4757127 4.9186685,-2.4662593 1.5654263,0.00728 2.5521055,0.4702715 5.1838055,2.4324678 l 2.057174,1.5338298 v 8.5467478 c 0,4.700712 -0.05625,8.541397 -0.125,8.534857 -0.06875,-0.0065 -3.0763168,-2.234034 -6.6834814,-4.949984 z"
       id="path1204" />
  </g>
  <rect
     style="opacity:1;fill:#b3b3b3;stroke-width:6.64945;fill-opacity:1"
     id="rect2944"
     width="50"
     height="33.333332"
     x="68.35006"
     y="5.1952543"
     inkscape:export-filename="Mail.png"
     inkscape:export-xdpi="96"
     inkscape:export-ydpi="96" />
  <path
     id="path3638"
     style="opacity:1;fill:#000021;fill-opacity:1;stroke-width:6.64943"
     d="M -44.657062 -52.004343 L -43.823817 -52.837587 L -43.823817 -74.741325 L -21.92031 -74.741095 L -21.086836 -75.574569 L -21.92031 -76.408044 L -43.823817 -76.407814 L -43.823817 -86.526438 L -43.823817 -88.193387 L -45.490536 -88.193157 L -55.60893 -88.192927 L -55.60893 -110.09666 L -56.442175 -110.92991 L -57.275649 -110.09643 L -57.275649 -88.193157 L -79.179156 -88.192927 L -80.012401 -87.359682 L -79.179156 -86.526438 L -45.490536 -86.526208 L -45.490536 -52.837818 L -44.657062 -52.004343 z "
     transform="rotate(135)" />
  <path
     id="rect3647"
     style="opacity:1;fill:#b3b3b3;stroke-width:6.64945;fill-opacity:1"
     d="M 122.91113 5.1953125 L 146.73242 29.016602 L 170.55404 5.1953125 L 122.91113 5.1953125 z M 171.73242 5.1953125 L 171.73242 6.3736979 L 156.24447 21.861979 L 171.73242 37.349935 L 171.73242 38.528646 L 171.73275 38.528646 L 171.73275 5.1953125 L 171.73242 5.1953125 z M 121.73275 6.3740234 L 121.73275 37.349609 L 137.2207 21.861979 L 121.73275 6.3740234 z M 138.39909 23.040365 L 122.91113 38.528646 L 170.55404 38.528646 L 155.06576 23.040365 L 147.91113 30.195312 L 146.73275 31.374023 L 145.55404 30.195312 L 138.39909 23.040365 z "
     inkscape:export-filename="MailNegativeSpace.png"
     inkscape:export-xdpi="96"
     inkscape:export-ydpi="96" />
</svg>
