<?xml version="1.0" encoding="UTF-8" standalone="no"?>
<!-- Created with Inkscape (http://www.inkscape.org/) -->

<svg
   width="885.65875"
   height="176.53186"
   aria-hidden="true"
   viewBox="0 0 52.48348 10.461147"
   version="1.1"
   data-view-component="true"
   id="svg5"
   inkscape:export-filename="Rubik's cube.png"
   inkscape:export-xdpi="96"
   inkscape:export-ydpi="96"
   inkscape:version="1.2.1 (9c6d41e410, 2022-07-14)"
   sodipodi:docname="Tilde.svg"
   xml:space="preserve"
   xmlns:inkscape="http://www.inkscape.org/namespaces/inkscape"
   xmlns:sodipodi="http://sodipodi.sourceforge.net/DTD/sodipodi-0.dtd"
   xmlns="http://www.w3.org/2000/svg"
   xmlns:svg="http://www.w3.org/2000/svg"><sodipodi:namedview
     id="namedview7"
     pagecolor="#505050"
     bordercolor="#00ffff"
     borderopacity="1"
     inkscape:pageshadow="0"
     inkscape:pageopacity="0"
     inkscape:pagecheckerboard="1"
     inkscape:document-units="mm"
     showgrid="false"
     inkscape:zoom="0.23033702"
     inkscape:cx="-191.02444"
     inkscape:cy="78.14636"
     inkscape:window-width="1366"
     inkscape:window-height="745"
     inkscape:window-x="2719"
     inkscape:window-y="2152"
     inkscape:window-maximized="1"
     inkscape:current-layer="svg5"
     inkscape:showpageshadow="true"
     inkscape:deskcolor="#002121"
     showguides="true" /><defs
     id="defs2" /><path
     id="path1113"
     style="color:#000000;fill:#000021;stroke-linecap:round;fill-opacity:1"
     d="m 79.840854,16.797453 v 0.560533 0.671875 h -1.119213 c -5.410072,0.296081 -9.669551,4.556605 -9.964815,9.966897 v 1.119098 7.1853 0.560533 c 0,5.172094 -3.351146,9.570662 -7.997453,11.141666 4.646307,1.571004 7.997453,5.969572 7.997453,11.141666 v 0.560533 7.185301 1.119097 c 0.295264,5.410292 4.554743,9.670816 9.964815,9.966898 h 1.119213 v 0.671875 0.560532 h -0.558681 c -6.487404,0 -11.759722,-5.270465 -11.759722,-11.75787 V 66.890855 59.705554 58.586457 C 67.227188,53.176164 62.967708,48.91564 57.557637,48.619559 h -1.119213 v -0.560533 -0.111342 -0.560533 h 1.119213 c 5.410071,-0.296081 9.669551,-4.556605 9.964814,-9.966897 v -1.119098 -7.1853 -0.560533 c 0,-6.487405 5.272318,-11.75787 11.759722,-11.75787 z"
     inkscape:export-filename="..\..\..\path1113.png"
     inkscape:export-xdpi="96"
     inkscape:export-ydpi="96" /><path
     id="path977"
     style="fill:#b3b3b3;fill-opacity:1;stroke:none;stroke-width:11.1986;stroke-linecap:square;stroke-miterlimit:5.5;stop-color:#000000"
     d="m 52.483478,0 c -2.08474,1.569441 -5.297227,3.494467 -8.664557,4.527625 -1.514,0.464545 -2.78543,0.676107 -3.91043,0.811444 -0.74039,0.08917 -1.45611,0.140953 -2.16435,0.154599 -1.6424,0.03165 -3.23114,-0.151453 -4.95545,-0.582477 -1.69428,-0.423411 -3.39257,-1.055797 -5.14121,-1.78923 -1.69727,-0.71192 -3.61146,-1.597948 -5.63375,-2.21826599 -2.1213,-0.650649 -4.35613,-1.011067 -6.73152,-0.764555 -1.01006,0.104986 -2.00529,0.316981 -2.97447,0.636411 C 10.846761,1.256492 9.3342513,2.037731 7.7957013,3.102862 4.4665913,5.407577 1.7322813,8.53461 1.2547303e-6,10.461147 2.1997713,8.872201 5.5859613,6.914701 9.1475213,5.836453 10.751201,5.350909 12.103631,5.119358 13.304831,4.967625 c 0.79073,-0.09923 1.55436,-0.162656 2.30815,-0.183381 1.74791,-0.05034 3.41442,0.125117 5.18075,0.545229 1.73447,0.4132 3.4492,1.037676 5.18675,1.766463 1.67897,0.704152 3.57818,1.599098 5.5367,2.226662 2.06423,0.661584 4.23076,1.042996 6.52777,0.81734 0.97655,-0.09636 1.93577,-0.298573 2.86661,-0.609945 1.40385,-0.469436 2.84304,-1.237733 4.29514,-2.286596 3.13081,-2.261468 5.673007,-5.353814 7.276777,-7.24322899284 z"
     inkscape:export-filename="Tilde.png"
     inkscape:export-xdpi="96"
     inkscape:export-ydpi="96" /></svg>
